<svg xmlns="http://www.w3.org/2000/svg" width="1024" height="1024" viewBox="0 0 1024 1024">
  <defs>
    <linearGradient id="bg" x1="0" y1="0" x2="1" y2="1">
      <stop offset="0" stop-color="#5b5bd6"/>
      <stop offset="0.52" stop-color="#7a5cd6"/>
      <stop offset="1" stop-color="#d45f9b"/>
    </linearGradient>
    <linearGradient id="inner" x1="0.1" y1="0" x2="0.9" y2="1">
      <stop offset="0" stop-color="#ffffff"/>
      <stop offset="1" stop-color="#f0e4ff"/>
    </linearGradient>
    <radialGradient id="shine" cx="0.34" cy="0.16" r="0.9">
      <stop offset="0" stop-color="#ffffff" stop-opacity="0.62"/>
      <stop offset="0.55" stop-color="#ffffff" stop-opacity="0.06"/>
      <stop offset="1" stop-color="#ffffff" stop-opacity="0"/>
    </radialGradient>
    <linearGradient id="core" x1="0" y1="0" x2="1" y2="1">
      <stop offset="0" stop-color="#8b5cf6"/>
      <stop offset="1" stop-color="#d45f9b"/>
    </linearGradient>
  </defs>

  <rect x="32" y="32" width="960" height="960" rx="224" fill="url(#bg)"/>
  <rect x="32" y="32" width="960" height="960" rx="224" fill="url(#shine)"/>

  <g opacity="0.14" stroke="#ffffff" stroke-width="3">
    <path d="M128 320h768M128 512h768M128 704h768" fill="none"/>
    <path d="M320 128v768M512 128v768M704 128v768" fill="none"/>
  </g>

  <g transform="translate(512 512)">
    <path d="M-208 -120 208 -120 298 0 208 120 -208 120 -298 0Z"
          fill="none" stroke="url(#inner)" stroke-width="44" stroke-linejoin="round"/>
    <path d="M-150 -82 150 -82 214 0 150 82 -150 82 -214 0Z"
          fill="rgba(255,255,255,0.97)"/>
    <circle cx="0" cy="0" r="46" fill="url(#core)"/>
    <circle cx="0" cy="0" r="16" fill="#ffffff" opacity="0.95"/>
  </g>
</svg>
